# xmcd
#
# Track frame offsets:
#	150
#	10896
#	21363
#	33713
#	46830
#	58137
#	73349
#	84646
#	96780
#	109050
#	122737
#	134067
#	143640
#	159264
#	170063
#	180082
#	188366
#	199943
#
# Disc length: 2831
#
# Revision: 1
# Processed by: cddbd v1.5.1PL0 Copyright (c) Steve Scherf et al.
# Submitted via: EasyCDDAExtractor 7.5.2.1
# Normalized: r0:DSETVAR1
#
DISCID=fa0b0d12
DTITLE=Various Artist - Country
DYEAR=2000
DGENRE=Country
TTITLE0=Roger Miller - King of the Road
TTITLE1=Jim Nesbitt - Running Bare
TTITLE2=Johnny Cash - I Walk the Line
TTITLE3=Kenny Rogers - Ruby(Don't Take Your Love To Town
TTITLE4=Waylon Jennings - Sally Was A Good Old Girl
TTITLE5=Earl Thomas Conley - The Night They Drove Old Dixie Down
TTITLE6=Ferlin Husky - Country Music is There To Say
TTITLE7=Johnny Dollar - Big Big Rolling Man
TTITLE8=Billie Jo Spears - What I've Got in Mind
TTITLE9=Don Williams - Where do We Go from Here
TTITLE10=Stoney Cooper and Wilma Lee - Big Midnight Special
TTITLE11=Freddy Fender - Running Back
TTITLE12=Billy Joe Royal - Tulsa
TTITLE13=Carl Belew - Am I That Easy to Forget
TTITLE14=Patsy Cline - Pick Me Up On Your Way Down
TTITLE15=Willie Nelson - You Wouldn't Cross The Street To Say Goodbye
TTITLE16=Frankie Laine - Mule Train
TTITLE17=Glen Campbell - By The Time I Get To Phoenix
EXTD=
EXTT0=
EXTT1=
EXTT2=
EXTT3=
EXTT4=
EXTT5=
EXTT6=
EXTT7=
EXTT8=
EXTT9=
EXTT10=
EXTT11=
EXTT12=
EXTT13=
EXTT14=
EXTT15=
EXTT16=
EXTT17=
PLAYORDER=
